<svg xmlns="http://www.w3.org/2000/svg" viewBox="0 0 64 64" width="64" height="64">
  <defs>
    <linearGradient id="g" x1="0%" y1="0%" x2="0%" y2="100%">
      <stop offset="0%" stop-color="#ff2438"/>
      <stop offset="100%" stop-color="#c4000f"/>
    </linearGradient>
  </defs>
  <path d="M32 4
           C34 12 36 16 38 18
           C42 12 46 10 48 10
           C44 16 42 20 44 22
           C50 18 54 20 54 20
           C50 26 46 30 48 32
           C54 32 58 34 58 34
           C52 38 46 40 48 42
           C54 46 56 50 56 50
           C50 48 44 48 42 50
           C46 54 48 58 48 58
           C42 56 38 54 36 54
           C38 58 38 60 38 60
           C35 58 33 56 32 56
           C31 56 29 58 26 60
           C26 60 26 58 28 54
           C26 54 22 56 16 58
           C16 58 18 54 22 50
           C20 48 14 48 8 50
           C8 50 10 46 16 42
           C18 40 12 38 6 34
           C6 34 10 32 16 32
           C18 30 14 26 10 20
           C10 20 14 18 20 22
           C22 20 20 16 16 10
           C16 10 20 12 24 18
           C26 16 28 12 30 4
           C31 6 31 6 32 4Z"
        fill="url(#g)"
        stroke="#900008"
        stroke-width="0.5"
        stroke-linejoin="round"/>
</svg>
